<svg width="1060" height="267" viewBox="0 0 1060 267" fill="none" xmlns="http://www.w3.org/2000/svg">
<rect width="1060" height="267" rx="30" fill="black"/>
<path d="M680.909 153.182V162.273H643.273V153.182H680.909ZM654.545 223V143.545C654.545 139.545 655.485 136.212 657.364 133.545C659.242 130.879 661.682 128.879 664.682 127.545C667.682 126.212 670.848 125.545 674.182 125.545C676.818 125.545 678.97 125.758 680.636 126.182C682.303 126.606 683.545 127 684.364 127.364L681.273 136.636C680.727 136.455 679.97 136.227 679 135.955C678.061 135.682 676.818 135.545 675.273 135.545C671.727 135.545 669.167 136.439 667.591 138.227C666.045 140.015 665.273 142.636 665.273 146.091V223H654.545ZM695.943 223V153.182H706.67V223H695.943ZM701.398 141.545C699.307 141.545 697.504 140.833 695.989 139.409C694.504 137.985 693.761 136.273 693.761 134.273C693.761 132.273 694.504 130.561 695.989 129.136C697.504 127.712 699.307 127 701.398 127C703.489 127 705.277 127.712 706.761 129.136C708.277 130.561 709.034 132.273 709.034 134.273C709.034 136.273 708.277 137.985 706.761 139.409C705.277 140.833 703.489 141.545 701.398 141.545ZM726.318 223V153.182H736.682V164.091H737.591C739.045 160.364 741.394 157.47 744.636 155.409C747.879 153.318 751.773 152.273 756.318 152.273C760.924 152.273 764.758 153.318 767.818 155.409C770.909 157.47 773.318 160.364 775.045 164.091H775.773C777.561 160.485 780.242 157.621 783.818 155.5C787.394 153.348 791.682 152.273 796.682 152.273C802.924 152.273 808.03 154.227 812 158.136C815.97 162.015 817.955 168.061 817.955 176.273V223H807.227V176.273C807.227 171.121 805.818 167.439 803 165.227C800.182 163.015 796.864 161.909 793.045 161.909C788.136 161.909 784.333 163.394 781.636 166.364C778.939 169.303 777.591 173.03 777.591 177.545V223H766.682V175.182C766.682 171.212 765.394 168.015 762.818 165.591C760.242 163.136 756.924 161.909 752.864 161.909C750.076 161.909 747.47 162.652 745.045 164.136C742.652 165.621 740.712 167.682 739.227 170.318C737.773 172.924 737.045 175.939 737.045 179.364V223H726.318ZM865.932 224.455C859.629 224.455 854.098 222.955 849.341 219.955C844.614 216.955 840.917 212.758 838.25 207.364C835.614 201.97 834.295 195.667 834.295 188.455C834.295 181.182 835.614 174.833 838.25 169.409C840.917 163.985 844.614 159.773 849.341 156.773C854.098 153.773 859.629 152.273 865.932 152.273C872.235 152.273 877.75 153.773 882.477 156.773C887.235 159.773 890.932 163.985 893.568 169.409C896.235 174.833 897.568 181.182 897.568 188.455C897.568 195.667 896.235 201.97 893.568 207.364C890.932 212.758 887.235 216.955 882.477 219.955C877.75 222.955 872.235 224.455 865.932 224.455ZM865.932 214.818C870.72 214.818 874.659 213.591 877.75 211.136C880.841 208.682 883.129 205.455 884.614 201.455C886.098 197.455 886.841 193.121 886.841 188.455C886.841 183.788 886.098 179.439 884.614 175.409C883.129 171.379 880.841 168.121 877.75 165.636C874.659 163.152 870.72 161.909 865.932 161.909C861.144 161.909 857.205 163.152 854.114 165.636C851.023 168.121 848.735 171.379 847.25 175.409C845.765 179.439 845.023 183.788 845.023 188.455C845.023 193.121 845.765 197.455 847.25 201.455C848.735 205.455 851.023 208.682 854.114 211.136C857.205 213.591 861.144 214.818 865.932 214.818ZM968.534 153.182L942.716 223H931.807L905.989 153.182H917.625L936.898 208.818H937.625L956.898 153.182H968.534Z" fill="white"/>
<path d="M231.818 223V153.182H242.545V223H231.818ZM237.273 141.545C235.182 141.545 233.379 140.833 231.864 139.409C230.379 137.985 229.636 136.273 229.636 134.273C229.636 132.273 230.379 130.561 231.864 129.136C233.379 127.712 235.182 127 237.273 127C239.364 127 241.152 127.712 242.636 129.136C244.152 130.561 244.909 132.273 244.909 134.273C244.909 136.273 244.152 137.985 242.636 139.409C241.152 140.833 239.364 141.545 237.273 141.545ZM272.193 197.545L272.011 184.273H274.193L304.739 153.182H318.011L285.466 186.091H284.557L272.193 197.545ZM262.193 223V129.909H272.92V223H262.193ZM306.557 223L279.284 188.455L286.92 181L320.193 223H306.557ZM331.818 223V153.182H342.545V223H331.818ZM337.273 141.545C335.182 141.545 333.379 140.833 331.864 139.409C330.379 137.985 329.636 136.273 329.636 134.273C329.636 132.273 330.379 130.561 331.864 129.136C333.379 127.712 335.182 127 337.273 127C339.364 127 341.152 127.712 342.636 129.136C344.152 130.561 344.909 132.273 344.909 134.273C344.909 136.273 344.152 137.985 342.636 139.409C341.152 140.833 339.364 141.545 337.273 141.545ZM392.557 153.182V162.273H356.375V153.182H392.557ZM366.92 136.455H377.648V203C377.648 206.03 378.087 208.303 378.966 209.818C379.875 211.303 381.027 212.303 382.42 212.818C383.845 213.303 385.345 213.545 386.92 213.545C388.102 213.545 389.072 213.485 389.83 213.364C390.587 213.212 391.193 213.091 391.648 213L393.83 222.636C393.102 222.909 392.087 223.182 390.784 223.455C389.481 223.758 387.83 223.909 385.83 223.909C382.799 223.909 379.83 223.258 376.92 221.955C374.042 220.652 371.648 218.667 369.739 216C367.86 213.333 366.92 209.97 366.92 205.909V136.455ZM429.239 224.636C424.814 224.636 420.799 223.803 417.193 222.136C413.587 220.439 410.723 218 408.602 214.818C406.481 211.606 405.42 207.727 405.42 203.182C405.42 199.182 406.208 195.939 407.784 193.455C409.36 190.939 411.466 188.97 414.102 187.545C416.739 186.121 419.648 185.061 422.83 184.364C426.042 183.636 429.269 183.061 432.511 182.636C436.754 182.091 440.193 181.682 442.83 181.409C445.496 181.106 447.436 180.606 448.648 179.909C449.89 179.212 450.511 178 450.511 176.273V175.909C450.511 171.424 449.284 167.939 446.83 165.455C444.405 162.97 440.723 161.727 435.784 161.727C430.663 161.727 426.648 162.848 423.739 165.091C420.83 167.333 418.784 169.727 417.602 172.273L407.42 168.636C409.239 164.394 411.663 161.091 414.693 158.727C417.754 156.333 421.087 154.667 424.693 153.727C428.33 152.758 431.905 152.273 435.42 152.273C437.663 152.273 440.239 152.545 443.148 153.091C446.087 153.606 448.92 154.682 451.648 156.318C454.405 157.955 456.693 160.424 458.511 163.727C460.33 167.03 461.239 171.455 461.239 177V223H450.511V213.545H449.966C449.239 215.061 448.027 216.682 446.33 218.409C444.633 220.136 442.375 221.606 439.557 222.818C436.739 224.03 433.299 224.636 429.239 224.636ZM430.875 215C435.117 215 438.693 214.167 441.602 212.5C444.542 210.833 446.754 208.682 448.239 206.045C449.754 203.409 450.511 200.636 450.511 197.727V187.909C450.057 188.455 449.057 188.955 447.511 189.409C445.996 189.833 444.239 190.212 442.239 190.545C440.269 190.848 438.345 191.121 436.466 191.364C434.617 191.576 433.117 191.758 431.966 191.909C429.178 192.273 426.572 192.864 424.148 193.682C421.754 194.47 419.814 195.667 418.33 197.273C416.875 198.848 416.148 201 416.148 203.727C416.148 207.455 417.527 210.273 420.284 212.182C423.072 214.061 426.602 215 430.875 215Z" fill="white"/>
<line x1="86" y1="39" x2="86" y2="223" stroke="#05FF00" stroke-width="8"/>
<line x1="205" y1="39" x2="205" y2="223" stroke="#05FF00" stroke-width="8"/>
<line x1="85.3367" y1="40.794" x2="204.337" y2="220.794" stroke="#05FF00" stroke-width="8"/>
<line x1="534" y1="39" x2="534" y2="223" stroke="#05FF00" stroke-width="8"/>
<line x1="530" y1="35" x2="630" y2="35" stroke="#05FF00" stroke-width="8"/>
<line x1="530" y1="130" x2="630" y2="130" stroke="#05FF00" stroke-width="8"/>
<line x1="530" y1="219" x2="630" y2="219" stroke="#05FF00" stroke-width="8"/>
</svg>
