<svg width="60" height="60" viewBox="0 0 60 60" fill="none" xmlns="http://www.w3.org/2000/svg">
<g clip-path="url(#clip0_410_255)">
<path d="M30.0001 0L56.5151 15V45L30.0001 60L3.48511 45V15L30.0001 0Z" fill="white"/>
<path d="M51.7801 43.965L30.8751 55.79V46.58L43.9001 39.415L51.7801 43.965ZM53.2101 42.67V17.94L45.5601 22.355V38.25L53.2101 42.67ZM8.13508 43.965L29.0401 55.79V46.58L16.0151 39.415L8.13508 43.965ZM6.70508 42.67V17.94L14.3551 22.355V38.25L6.70508 42.67ZM7.60008 16.34L29.0401 4.20996V13.115L15.3051 20.67L15.2001 20.73L7.60008 16.34ZM52.3151 16.34L30.8751 4.20996V13.115L44.6101 20.67L44.7151 20.73L52.3151 16.34Z" fill="#8ED6FB"/>
<path d="M29.0399 44.485L16.1899 37.42V23.42L29.0399 30.84V44.485ZM30.8749 44.485L43.7249 37.42V23.42L30.8749 30.84V44.485ZM17.0599 21.8L29.9599 14.705L42.8599 21.8L29.9599 29.25L17.0599 21.8Z" fill="#1C78C0"/>
</g>
<defs>
<clipPath id="clip0_410_255">
<rect width="60" height="60" fill="white"/>
</clipPath>
</defs>
</svg>
