<svg width="60" height="69" viewBox="0 0 60 69" fill="none" xmlns="http://www.w3.org/2000/svg">
<path d="M60 34.1536C60 30.1831 55.0224 26.4203 47.391 24.0869C49.1521 16.317 48.3693 10.1353 44.9205 8.1562C44.1256 7.69196 43.1961 7.47206 42.181 7.47206V10.1964C42.7436 10.1964 43.1961 10.3064 43.5752 10.514C45.2385 11.4669 45.9601 15.0953 45.3975 19.7622C45.2629 20.9105 45.0428 22.12 44.7737 23.3539C42.3767 22.7675 39.7595 22.3155 37.0077 22.0223C35.3567 19.7622 33.6445 17.7097 31.9201 15.9139C35.9071 12.2122 39.6494 10.1842 42.1932 10.1842V7.45984C38.83 7.45984 34.4272 9.85433 29.9755 14.008C25.5238 9.87877 21.1211 7.50871 17.7578 7.50871V10.2331C20.2894 10.2331 24.044 12.2488 28.031 15.9261C26.3188 17.722 24.6066 19.7622 22.98 22.0223C20.2161 22.3155 17.5989 22.7675 15.2018 23.3661C14.9205 22.1444 14.7126 20.9594 14.5658 19.8232C13.991 15.1564 14.7004 11.528 16.3514 10.5629C16.7183 10.343 17.1953 10.2453 17.7578 10.2453V7.52092C16.7305 7.52092 15.8011 7.74083 14.9939 8.20506C11.5573 10.1842 10.7868 16.3537 12.5601 24.0991C4.95312 26.4447 0 30.1953 0 34.1536C0 38.124 4.97758 41.8868 12.609 44.2202C10.8479 51.9901 11.6307 58.1718 15.0795 60.1509C15.8744 60.6151 16.8039 60.835 17.8312 60.835C21.1945 60.835 25.5972 58.4406 30.0489 54.2868C34.5006 58.4161 38.9034 60.7862 42.2666 60.7862C43.2939 60.7862 44.2234 60.5663 45.0306 60.102C48.4672 58.1229 49.2377 51.9534 47.4643 44.208C55.0469 41.8746 60 38.1118 60 34.1536ZM44.0766 26.0049C43.6241 27.5809 43.0616 29.2057 42.4256 30.8306C41.9242 29.8532 41.3983 28.8759 40.8235 27.8985C40.2609 26.9212 39.6616 25.9683 39.0624 25.0398C40.799 25.2964 42.4745 25.614 44.0766 26.0049ZM38.4753 39.0158C37.5214 40.6651 36.543 42.2289 35.5279 43.6827C33.7057 43.8415 31.8589 43.927 30 43.927C28.1533 43.927 26.3066 43.8415 24.4965 43.6949C23.4815 42.2411 22.4908 40.6895 21.5369 39.0525C20.6074 37.4521 19.7636 35.8273 18.9931 34.1902C19.7513 32.5531 20.6074 30.9161 21.5247 29.3157C22.4786 27.6664 23.457 26.1027 24.4721 24.6489C26.2943 24.4901 28.1411 24.4045 30 24.4045C31.8467 24.4045 33.6934 24.4901 35.5035 24.6367C36.5186 26.0905 37.5092 27.642 38.4631 29.279C39.3926 30.8794 40.2364 32.5043 41.0069 34.1413C40.2364 35.7784 39.3926 37.4154 38.4753 39.0158ZM42.4256 37.4277C43.086 39.0647 43.6486 40.7018 44.1133 42.2899C42.5112 42.6809 40.8235 43.0107 39.0746 43.2673C39.6739 42.3266 40.2731 41.3615 40.8357 40.3719C41.3983 39.3946 41.9242 38.405 42.4256 37.4277ZM30.0245 50.463C28.8871 49.2902 27.7497 47.983 26.6245 46.5536C27.7252 46.6025 28.8504 46.6391 29.9878 46.6391C31.1374 46.6391 32.2748 46.6147 33.3877 46.5536C32.287 47.983 31.1496 49.2902 30.0245 50.463ZM20.9254 43.2673C19.1887 43.0107 17.5132 42.6931 15.9111 42.3022C16.3636 40.7262 16.9262 39.1014 17.5622 37.4765C18.0636 38.4539 18.5895 39.4312 19.1643 40.4086C19.7391 41.3859 20.3261 42.3388 20.9254 43.2673ZM29.9633 17.8441C31.1007 19.0169 32.2381 20.3241 33.3632 21.7535C32.2625 21.7046 31.1374 21.668 30 21.668C28.8504 21.668 27.713 21.6924 26.6001 21.7535C27.7008 20.3241 28.8382 19.0169 29.9633 17.8441ZM20.9132 25.0398C20.3139 25.9805 19.7146 26.9456 19.1521 27.9352C18.5895 28.9125 18.0636 29.8899 17.5622 30.8672C16.9018 29.2302 16.3392 27.5931 15.8744 26.0049C17.4766 25.6262 19.1643 25.2964 20.9132 25.0398ZM9.84509 40.3353C5.5157 38.4905 2.71504 36.0716 2.71504 34.1536C2.71504 32.2355 5.5157 29.8044 9.84509 27.9718C10.8969 27.5198 12.0465 27.1167 13.2328 26.738C13.9299 29.1324 14.8471 31.6247 15.9845 34.178C14.8594 36.7191 13.9543 39.1991 13.2695 41.5814C12.0587 41.2026 10.9091 40.7873 9.84509 40.3353ZM16.4248 57.7931C14.7615 56.8402 14.04 53.2118 14.6025 48.5449C14.7371 47.3966 14.9572 46.1871 15.2263 44.9532C17.6233 45.5396 20.2405 45.9916 22.9923 46.2848C24.6433 48.5449 26.3555 50.5974 28.0799 52.3932C24.0929 56.0949 20.3506 58.1229 17.8068 58.1229C17.2564 58.1107 16.7917 58.0007 16.4248 57.7931ZM45.4342 48.4839C46.009 53.1507 45.2996 56.7791 43.6486 57.7442C43.2817 57.9641 42.8047 58.0618 42.2421 58.0618C39.7106 58.0618 35.956 56.0461 31.969 52.3688C33.6812 50.5729 35.3934 48.5327 37.02 46.2726C39.7839 45.9794 42.4011 45.5274 44.7982 44.9288C45.0795 46.1627 45.2996 47.3477 45.4342 48.4839ZM50.1427 40.3353C49.0909 40.7873 47.9413 41.1904 46.755 41.5692C46.0579 39.1747 45.1406 36.6824 44.0033 34.1291C45.1284 31.588 46.0334 29.108 46.7183 26.7257C47.9291 27.1045 49.0787 27.5198 50.1549 27.9718C54.4843 29.8166 57.285 32.2355 57.285 34.1536C57.2727 36.0716 54.4721 38.5027 50.1427 40.3353Z" fill="#61DAFB"/>
<path d="M29.9878 39.7366C33.0745 39.7366 35.5768 37.237 35.5768 34.1535C35.5768 31.0701 33.0745 28.5704 29.9878 28.5704C26.901 28.5704 24.3987 31.0701 24.3987 34.1535C24.3987 37.237 26.901 39.7366 29.9878 39.7366Z" fill="#61DAFB"/>
</svg>
