<svg width="60" height="67" viewBox="0 0 60 67" fill="none" xmlns="http://www.w3.org/2000/svg">
<g clip-path="url(#clip0_410_247)">
<path d="M27.2997 0.839867C28.931 -0.0950632 31.0559 -0.0992862 32.6858 0.839867C40.886 5.47909 49.0887 10.111 57.2875 14.7531C58.8296 15.6228 59.8611 17.3411 59.8454 19.1202V47.0315C59.8569 48.8843 58.7234 50.6436 57.0965 51.4936C48.9233 56.1073 40.7543 60.7266 32.5825 65.3402C30.9174 66.2935 28.7499 66.22 27.1368 65.1887C24.6865 63.7664 22.232 62.3513 19.7814 60.9305C19.2807 60.6316 18.7162 60.3937 18.3626 59.9075C18.6752 59.4857 19.234 59.4332 19.6881 59.249C20.711 58.9233 21.6504 58.4006 22.59 57.8934C22.8276 57.7306 23.1177 57.793 23.3455 57.9387C25.4408 59.1415 27.5176 60.3793 29.62 61.5707C30.0684 61.83 30.5226 61.4858 30.9059 61.2718C38.9264 56.7332 46.9566 52.2118 54.9757 47.6718C55.2728 47.5287 55.437 47.2129 55.4129 46.887C55.4185 37.6797 55.4143 28.4706 55.4157 19.2633C55.4497 18.8935 55.236 18.5536 54.9021 18.4023C46.7572 13.8097 38.6166 9.21014 30.4731 4.61642C30.332 4.51931 30.1649 4.4672 29.9937 4.46695C29.8225 4.4667 29.6552 4.51831 29.5138 4.61502C21.3704 9.21014 13.2311 13.8139 5.08766 18.4062C4.75492 18.5578 4.53161 18.8921 4.57121 19.2633C4.57262 28.4706 4.57121 37.6797 4.57121 46.8884C4.55709 47.0474 4.59197 47.2069 4.67116 47.3455C4.75034 47.484 4.87002 47.595 5.01409 47.6634C7.18721 48.8972 9.36314 50.1223 11.5377 51.3519C12.7627 52.0121 14.2668 52.4044 15.6165 51.8986C16.8076 51.4709 17.6425 50.2539 17.6198 48.9877C17.631 39.8341 17.6141 30.6791 17.6282 21.5268C17.5984 21.1205 17.9834 20.7847 18.378 20.823C19.4222 20.8159 20.4677 20.8089 21.5119 20.8258C21.9477 20.8159 22.2477 21.2535 22.1938 21.6629C22.1895 30.8745 22.205 40.0863 22.1867 49.2979C22.1895 51.7529 21.1822 54.4242 18.9142 55.6254C16.1201 57.0746 12.6666 56.7673 9.9063 55.3776C7.51666 54.1835 5.23623 52.7742 2.88901 51.4948C1.25788 50.6495 0.130077 48.8831 0.141559 47.0318V19.1202C0.124453 17.3043 1.19695 15.5548 2.78707 14.6977C10.9589 10.0803 19.1293 5.45939 27.2997 0.839867Z" fill="#8CC84B"/>
<path d="M34.4288 20.1742C37.9929 19.9445 41.8083 20.0382 45.0155 21.7961C47.4987 23.1433 48.8753 25.9706 48.9191 28.7327C48.8498 29.1052 48.4608 29.3107 48.1056 29.2852C47.0715 29.2838 46.0372 29.2992 45.0031 29.2781C44.5645 29.295 44.3095 28.8901 44.2545 28.5018C43.9573 27.1802 43.2375 25.8713 41.9951 25.2339C40.0879 24.2778 37.8766 24.3259 35.797 24.3459C34.2788 24.4266 32.6463 24.5582 31.3601 25.4521C30.3726 26.1292 30.0727 27.496 30.4251 28.5968C30.7574 29.3872 31.6687 29.6423 32.4143 29.8773C36.7095 31.0021 41.261 30.8902 45.4741 32.3703C47.2184 32.9737 48.9248 34.1468 49.5218 35.9754C50.3028 38.4261 49.9605 41.3555 48.219 43.323C46.8067 44.942 44.7498 45.8232 42.6983 46.3018C39.9691 46.9111 37.1369 46.9266 34.3653 46.6561C31.7591 46.3586 29.0471 45.6731 27.0352 43.8952C25.3148 42.3995 24.4745 40.0691 24.5579 37.8199C24.5778 37.4401 24.9555 37.1752 25.319 37.2064C26.3603 37.1979 27.4017 37.1951 28.443 37.2078C28.8589 37.178 29.1673 37.5379 29.1886 37.9304C29.3808 39.1896 29.8534 40.5111 30.95 41.2577C33.0664 42.6248 35.722 42.5312 38.1454 42.5694C40.1531 42.4802 42.4068 42.4533 44.0452 41.1247C44.9096 40.3669 45.1657 39.099 44.9321 38.0083C44.679 37.0874 43.7169 36.6583 42.8907 36.3777C38.6506 35.0348 34.0482 35.5221 29.8492 34.0035C28.1445 33.4003 26.496 32.2598 25.8411 30.5063C24.9272 28.0246 25.3459 24.9549 27.27 23.0539C29.146 21.1629 31.854 20.4349 34.4288 20.1742Z" fill="#8CC84B"/>
</g>
<defs>
<clipPath id="clip0_410_247">
<rect width="60" height="66.1607" fill="white"/>
</clipPath>
</defs>
</svg>
