<svg width="1060" height="267" viewBox="0 0 1060 267" fill="none" xmlns="http://www.w3.org/2000/svg">
<path d="M651.24 223V147.48C651.24 134.68 657.64 128.28 670.44 128.28H681.96L687.08 132.12V137.24H670.44C664.467 137.24 661.48 140.227 661.48 146.2V156.44H685.8V165.4H661.48V223H651.24ZM699.353 144.024V131.992H710.617V144.024H699.353ZM699.865 223V156.44H710.105V223H699.865ZM730.615 223V156.44H806.135C818.935 156.44 825.335 162.84 825.335 175.64V223H815.095V174.36C815.095 168.387 812.108 165.4 806.135 165.4H783.095V223H772.855V165.4H740.855V223H730.615ZM844.341 203.8V175.64C844.341 162.84 850.741 156.44 863.541 156.44H881.461C894.261 156.44 900.661 162.84 900.661 175.64V203.8C900.661 216.6 894.261 223 881.461 223H863.541C850.741 223 844.341 216.6 844.341 203.8ZM854.581 205.08C854.581 211.053 857.568 214.04 863.541 214.04H881.461C887.434 214.04 890.421 211.053 890.421 205.08V174.36C890.421 168.387 887.434 165.4 881.461 165.4H863.541C857.568 165.4 854.581 168.387 854.581 174.36V205.08ZM912.435 158.232L913.587 156.44H922.419L941.875 214.04H944.435L963.891 156.44H972.723L973.875 158.232L951.475 223H934.835L912.435 158.232Z" fill="white"/>
<path d="M235.728 144.024V131.992H246.992V144.024H235.728ZM236.24 223V156.44H246.48V223H236.24ZM266.99 223V128.28H277.23V190.36L308.078 156.44H318.062L318.958 158.36L295.15 184.344L320.75 221.08L319.854 223H309.87L288.366 191.768L277.23 203.8V223H266.99ZM334.103 144.024V131.992H345.367V144.024H334.103ZM334.615 223V156.44H344.855V223H334.615ZM364.853 203.8V134.68H375.093V156.44H399.413V165.4H375.093V205.08C375.093 211.053 378.08 214.04 384.053 214.04H400.693V219.16L395.573 223H384.053C371.253 223 364.853 216.6 364.853 203.8ZM431.234 223C418.349 223 411.906 216.557 411.906 203.672C411.906 190.787 418.349 184.344 431.234 184.344H454.658V174.36C454.658 168.387 451.671 165.4 445.698 165.4H418.306V160.28L423.426 156.44H445.698C458.498 156.44 464.898 162.84 464.898 175.64V223H431.234ZM422.146 205.08C422.146 211.053 425.133 214.04 431.106 214.04H454.658V192.664H431.106C425.133 192.664 422.146 195.651 422.146 201.624V205.08Z" fill="white"/>
<line x1="86" y1="39" x2="86" y2="223" stroke="#05FF00" stroke-width="8"/>
<line x1="205" y1="39" x2="205" y2="223" stroke="#05FF00" stroke-width="8"/>
<line x1="85.3367" y1="40.794" x2="204.337" y2="220.794" stroke="#05FF00" stroke-width="8"/>
<line x1="534" y1="39" x2="534" y2="223" stroke="#05FF00" stroke-width="8"/>
<line x1="530" y1="35" x2="630" y2="35" stroke="#05FF00" stroke-width="8"/>
<line x1="530" y1="130" x2="630" y2="130" stroke="#05FF00" stroke-width="8"/>
<line x1="530" y1="219" x2="630" y2="219" stroke="#05FF00" stroke-width="8"/>
</svg>
